<svg xmlns="http://www.w3.org/2000/svg" xmlns:xlink="http://www.w3.org/1999/xlink" width="500" zoomAndPan="magnify" viewBox="0 0 375 374.999991" height="500" preserveAspectRatio="xMidYMid meet" version="1.0"><path stroke-linecap="round" transform="matrix(4.242641, -4.242641, 4.242641, 4.242641, 56.165182, 172.867664)" fill="none" stroke-linejoin="miter" d="M 0.499871 -0.000188121 L 19.500144 0.000272235 " stroke="#000000" stroke-width="1" stroke-opacity="1" stroke-miterlimit="4"/><path stroke-linecap="round" transform="matrix(4.242641, 4.242641, -4.242641, 4.242641, 56.915182, 171.769326)" fill="none" stroke-linejoin="miter" d="M 0.499839 0.000156223 L 19.500112 -0.000304133 " stroke="#000000" stroke-width="1" stroke-opacity="1" stroke-miterlimit="4"/><path stroke-linecap="round" transform="matrix(3.71231, -3.71231, 3.71231, 3.71231, 234.247153, 256.24715)" fill="none" stroke-linejoin="miter" d="M 0.499815 -0.000284996 L 22.356991 -0.000284996 " stroke="#000000" stroke-width="1" stroke-opacity="1" stroke-miterlimit="4"/><path stroke-linecap="round" transform="matrix(4.242641, 4.242641, -4.242641, 4.242641, 233.251614, 88.014853)" fill="none" stroke-linejoin="miter" d="M 0.499847 0.000281141 L 19.50012 -0.000179215 " stroke="#000000" stroke-width="1" stroke-opacity="1" stroke-miterlimit="4"/><path stroke-linecap="round" transform="matrix(7.5, 0, 0, 7.5, 104.216592, 170.981444)" fill="none" stroke-linejoin="miter" d="M 0.499767 -0.00013003 L 15.499768 -0.00013003 " stroke="#000000" stroke-width="1" stroke-opacity="1" stroke-miterlimit="4"/><path stroke-linecap="round" transform="matrix(0.000000000000000459, 7.5, -7.5, 0.000000000000000459, 164.216595, 169.106444)" fill="none" stroke-linejoin="miter" d="M 0.49987 0.000233542 L 15.499871 0.000233542 " stroke="#000000" stroke-width="1" stroke-opacity="1" stroke-miterlimit="4"/><path stroke-linecap="round" transform="matrix(2.367843, -5.513013, 5.513013, 2.367843, 205.283677, 242.181414)" fill="none" stroke-linejoin="miter" d="M 0.499942 0.000233871 L 19.500314 -0.0000605227 " stroke="#000000" stroke-width="1" stroke-opacity="1" stroke-miterlimit="4"/></svg>