<svg xmlns="http://www.w3.org/2000/svg" xmlns:xlink="http://www.w3.org/1999/xlink" width="500" zoomAndPan="magnify" viewBox="0 0 375 374.999991" height="500" preserveAspectRatio="xMidYMid meet" version="1.0"><path stroke-linecap="round" transform="matrix(5.245378, -5.245378, 5.245378, 5.245378, 25.124529, 169.409343)" fill="none" stroke-linejoin="miter" d="M 0.500036 -0.000249923 L 19.500022 0.000122428 " stroke="#13293d" stroke-width="1" stroke-opacity="1" stroke-miterlimit="4"/><path stroke-linecap="round" transform="matrix(5.245378, 5.245378, -5.245378, 5.245378, 26.051788, 168.051419)" fill="none" stroke-linejoin="miter" d="M 0.500284 0.0000351685 L 19.499898 0.0000351685 " stroke="#13293d" stroke-width="1" stroke-opacity="1" stroke-miterlimit="4"/><path stroke-linecap="round" transform="matrix(4.589706, -4.589706, 4.589706, 4.589706, 245.295735, 272.495344)" fill="none" stroke-linejoin="miter" d="M 0.500058 -0.000219622 L 22.357311 0.000205923 " stroke="#13293d" stroke-width="1" stroke-opacity="1" stroke-miterlimit="4"/><path stroke-linecap="round" transform="matrix(5.245378, 5.245378, -5.245378, 5.245378, 244.0649, 64.501791)" fill="none" stroke-linejoin="miter" d="M 0.500041 0.0000580233 L 19.500027 -0.000314328 " stroke="#13293d" stroke-width="1" stroke-opacity="1" stroke-miterlimit="4"/><path stroke-linecap="round" transform="matrix(9.272606, 0, 0, 9.272606, 84.53277, 167.077328)" fill="none" stroke-linejoin="miter" d="M 0.499881 0.0000859275 L 15.499963 0.0000859275 " stroke="#13293d" stroke-width="1" stroke-opacity="1" stroke-miterlimit="4"/><path stroke-linecap="round" transform="matrix(0.000000000000000568, 9.272606, -9.272606, 0.000000000000000568, 158.713616, 164.759183)" fill="none" stroke-linejoin="miter" d="M 0.499897 -0.000132355 L 15.499979 -0.000132355 " stroke="#13293d" stroke-width="1" stroke-opacity="1" stroke-miterlimit="4"/><path stroke-linecap="round" transform="matrix(2.927477, -6.816, 6.816, 2.927477, 209.486813, 255.105247)" fill="none" stroke-linejoin="miter" d="M 0.500169 -0.000268047 L 19.500312 0.0000999518 " stroke="#13293d" stroke-width="1" stroke-opacity="1" stroke-miterlimit="4"/></svg>